<?xml version="1.0" encoding="UTF-8"?>
<!DOCTYPE svg PUBLIC "-//W3C//DTD SVG 1.1//EN" "http://www.w3.org/Graphics/SVG/1.1/DTD/svg11.dtd">
<svg xmlns="http://www.w3.org/2000/svg" version="1.1" width="1080px" height="972px" style="shape-rendering:geometricPrecision; text-rendering:geometricPrecision; image-rendering:optimizeQuality; fill-rule:evenodd; clip-rule:evenodd" xmlns:xlink="http://www.w3.org/1999/xlink">
<g><path style="opacity:0.911" fill="#cd967a" d="M 262.5,19.5 C 445.5,19.3333 628.5,19.5 811.5,20C 816.987,21.6337 820.487,25.1337 822,30.5C 822.5,51.164 822.667,71.8306 822.5,92.5C 840.503,92.3334 858.503,92.5001 876.5,93C 881.004,93.496 884.504,95.6627 887,99.5C 888.644,131.439 888.978,163.439 888,195.5C 887.218,200.48 884.384,203.647 879.5,205C 873.175,205.5 866.842,205.666 860.5,205.5C 858.813,220.031 857.313,234.697 856,249.5C 832.933,418.976 809.933,588.309 787,757.5C 783.723,790.015 779.389,822.348 774,854.5C 770.868,879.151 767.868,903.817 765,928.5C 763.692,932.901 761.859,937.068 759.5,941C 757.448,942.812 755.115,944.145 752.5,945C 612.167,945.667 471.833,945.667 331.5,945C 327.79,943.623 324.624,941.457 322,938.5C 321.273,934.358 320.273,930.358 319,926.5C 317.315,910.231 315.148,894.065 312.5,878C 312.585,876.893 312.919,875.893 313.5,875C 305.492,820.015 297.659,765.181 290,710.5C 284.661,667.757 279.328,625.09 274,582.5C 271.774,568.094 269.44,553.761 267,539.5C 254.623,439.519 241.623,339.185 228,238.5C 226.732,231.49 225.399,224.49 224,217.5C 223.501,213.514 223.334,209.514 223.5,205.5C 213.828,205.666 204.161,205.5 194.5,205C 189.616,203.647 186.782,200.48 186,195.5C 185.333,164.5 185.333,133.5 186,102.5C 188.025,97.1418 191.858,93.9752 197.5,93C 215.497,92.5001 233.497,92.3334 251.5,92.5C 251.333,71.8306 251.5,51.164 252,30.5C 252.333,29.1667 252.667,27.8333 253,26.5C 255.798,23.5282 258.964,21.1949 262.5,19.5 Z M 281.5,48.5 C 451.833,48.5 622.167,48.5 792.5,48.5C 792.5,63.1667 792.5,77.8333 792.5,92.5C 622.167,92.5 451.833,92.5 281.5,92.5C 281.5,77.8333 281.5,63.1667 281.5,48.5 Z M 214.5,123.5 C 429.333,122.334 644.333,122.167 859.5,123C 858.167,140.333 858.167,157.667 859.5,175C 644.5,175.667 429.5,175.667 214.5,175C 215.831,157.736 215.831,140.569 214.5,123.5 Z M 252.5,205.5 C 445.167,205.5 637.833,205.5 830.5,205.5C 824.529,245.129 819.196,285.796 814.5,327.5C 632.833,327.5 451.167,327.5 269.5,327.5C 264.71,286.639 259.043,245.972 252.5,205.5 Z M 273.5,359.5 C 452.333,358.334 631.333,358.167 810.5,359C 808.595,374.713 806.095,390.213 803,405.5C 802.444,412.843 801.777,420.177 801,427.5C 800.667,427.167 800.333,426.833 800,426.5C 798.785,442.322 797.118,457.989 795,473.5C 794.83,475.715 794.163,477.715 793,479.5C 783.918,547.947 774.752,616.281 765.5,684.5C 616.168,685.275 466.835,685.608 317.5,685.5C 302.611,576.351 287.945,467.684 273.5,359.5 Z M 750.5,713.5 C 754.5,713.5 758.5,713.5 762.5,713.5C 753.918,781.186 744.584,848.686 734.5,916C 605.5,916.5 476.5,916.667 347.5,916.5C 347.332,908.483 346.832,900.483 346,892.5C 345.667,892.833 345.333,893.167 345,893.5C 337.616,833.775 329.783,774.108 321.5,714.5C 464.668,714.833 607.668,714.5 750.5,713.5 Z"/></g>
<g><path style="opacity:0.954" fill="#cd967a" d="M 585.5,457.5 C 583.605,458.703 581.605,459.869 579.5,461C 564.672,475.16 551.672,490.827 540.5,508C 521.91,550.257 491.41,580.424 449,598.5C 446.294,597.11 443.461,595.944 440.5,595C 437.196,591.53 434.529,587.696 432.5,583.5C 417.472,544.307 423.972,506.64 452,470.5C 452.483,469.552 452.649,468.552 452.5,467.5C 453.675,467.719 454.675,467.386 455.5,466.5C 482.756,433.897 516.756,413.73 557.5,406C 575.819,404.018 592.819,406.351 608.5,413C 612.929,415.102 617.095,417.602 621,420.5C 623.738,426.199 622.571,430.866 617.5,434.5C 609.853,438.872 601.853,443.705 593.5,449C 594.451,449.718 594.617,450.551 594,451.5C 593.282,450.549 592.449,450.383 591.5,451C 589.146,452.972 587.146,455.139 585.5,457.5 Z"/></g>
<g><path style="opacity:0.955" fill="#cd967a" d="M 632.5,440.5 C 642.238,440.401 648.405,445.067 651,454.5C 663.528,488.668 660.528,521.335 642,552.5C 616.123,592.987 579.623,619.154 532.5,631C 508.071,635.586 485.405,631.586 464.5,619C 461.379,615.356 460.712,611.189 462.5,606.5C 483.153,594.1 501.986,579.433 519,562.5C 525.031,554.809 531.031,547.142 537,539.5C 545.157,524.31 553.824,509.31 563,494.5C 567.667,489.167 572.333,483.833 577,478.5C 584.218,471.481 591.718,464.814 599.5,458.5C 607.824,453.337 616.157,448.17 624.5,443C 627.251,442.057 629.917,441.224 632.5,440.5 Z"/></g>
<g><path style="opacity:0.005" fill="#cd967a" d="M 481.5,589.5 C 482.573,590.251 482.74,591.251 482,592.5C 480.272,591.648 480.105,590.648 481.5,589.5 Z"/></g>
</svg>
