<?xml version="1.0" encoding="UTF-8"?>
<!DOCTYPE svg PUBLIC "-//W3C//DTD SVG 1.1//EN" "http://www.w3.org/Graphics/SVG/1.1/DTD/svg11.dtd">
<svg xmlns="http://www.w3.org/2000/svg" version="1.1" width="1080px" height="972px" style="shape-rendering:geometricPrecision; text-rendering:geometricPrecision; image-rendering:optimizeQuality; fill-rule:evenodd; clip-rule:evenodd" xmlns:xlink="http://www.w3.org/1999/xlink">
<g><path style="opacity:0.973" fill="#cd967a" d="M 648.5,72.5 C 718.309,69.7937 786.976,77.2937 854.5,95C 903.829,107.999 948.496,129.999 988.5,161C 998.734,170.564 1008.23,180.731 1017,191.5C 1049.61,240.003 1047.95,287.336 1012,333.5C 1004.67,342.167 996.667,350.167 988,357.5C 983.62,468.149 979.62,578.815 976,689.5C 971.67,731.495 948.837,756.662 907.5,765C 881.835,765.5 856.169,765.667 830.5,765.5C 831.048,797.576 818.048,822.409 791.5,840C 781.17,845.555 770.17,848.888 758.5,850C 733.836,850.5 709.169,850.667 684.5,850.5C 685.594,883.821 671.927,908.987 643.5,926C 635.905,929.865 627.905,932.532 619.5,934C 465.167,934.667 310.833,934.667 156.5,934C 121,926.5 99.5,905 92,869.5C 87.9613,755.853 84.2947,642.186 81,528.5C 57.2958,510.139 40.6291,486.806 31,458.5C 21.997,424.184 27.6637,392.517 48,363.5C 64.9488,340.962 85.4488,322.462 109.5,308C 138.634,290.836 169.467,277.336 202,267.5C 229.142,238.706 260.976,216.54 297.5,201C 313.873,194.209 330.54,188.209 347.5,183C 375.493,153.16 408.493,130.493 446.5,115C 511.521,89.3634 578.854,75.1968 648.5,72.5 Z M 647.5,114.5 C 723.638,111.02 797.971,120.853 870.5,144C 905.127,155.307 936.461,172.307 964.5,195C 1008.61,235.726 1009.61,277.393 967.5,320C 962.276,324.859 956.776,329.359 951,333.5C 948.522,336.789 946.856,340.456 946,344.5C 941.952,459.165 937.952,573.832 934,688.5C 932.206,706.943 922.373,718.443 904.5,723C 880.502,723.5 856.502,723.667 832.5,723.5C 835.272,629.604 838.439,535.938 842,442.5C 861.596,426.292 876.596,406.626 887,383.5C 900.479,346.046 895.812,311.046 873,278.5C 854.545,254.707 832.378,235.207 806.5,220C 760.161,194.331 710.828,176.997 658.5,168C 587.402,155.841 516.069,153.841 444.5,162C 491.189,140.106 540.189,126.106 591.5,120C 610.277,117.725 628.944,115.892 647.5,114.5 Z M 300.5,246.5 C 333.202,230.544 367.535,219.044 403.5,212C 493.304,194.752 582.97,195.419 672.5,214C 720.509,223.85 764.842,242.183 805.5,269C 824,282.168 838.167,299.002 848,319.5C 856.334,344.157 852.667,366.824 837,387.5C 827.848,399.407 817.182,409.74 805,418.5C 802.158,422.356 800.491,426.69 800,431.5C 796.476,547.665 792.143,664.332 787,781.5C 783.14,794.693 774.64,803.193 761.5,807C 736.552,808.462 711.552,808.962 686.5,808.5C 689.431,714.46 692.931,620.46 697,526.5C 719.678,508.154 735.678,485.154 745,457.5C 753.516,423.082 747.516,391.416 727,362.5C 708.491,338.32 685.991,318.82 659.5,304C 606.626,275.265 550.292,256.931 490.5,249C 427.272,240.068 363.939,239.235 300.5,246.5 Z M 369.5,283.5 C 441.458,281.566 511.792,291.732 580.5,314C 609.617,323.725 636.617,337.391 661.5,355C 679.365,367.588 692.865,383.755 702,403.5C 711.166,430.5 706.499,454.834 688,476.5C 679.701,486.31 670.368,494.977 660,502.5C 657.387,505.324 655.721,508.658 655,512.5C 650.644,629.499 646.311,746.499 642,863.5C 638.683,878.15 629.849,887.65 615.5,892C 463.833,892.667 312.167,892.667 160.5,892C 144.478,886.977 135.311,876.144 133,859.5C 129.777,743.812 126.11,628.145 122,512.5C 121.274,509.379 119.774,506.713 117.5,504.5C 99.575,491.747 85.4083,475.747 75,456.5C 64.7606,432.259 67.0939,409.259 82,387.5C 98.1225,367.047 117.622,350.547 140.5,338C 194.695,310.782 252.029,294.115 312.5,288C 331.623,286.071 350.623,284.571 369.5,283.5 Z"/></g>
</svg>
