<?xml version="1.0" encoding="UTF-8"?>
<!DOCTYPE svg PUBLIC "-//W3C//DTD SVG 1.1//EN" "http://www.w3.org/Graphics/SVG/1.1/DTD/svg11.dtd">
<svg xmlns="http://www.w3.org/2000/svg" version="1.1" width="1080px" height="972px" style="shape-rendering:geometricPrecision; text-rendering:geometricPrecision; image-rendering:optimizeQuality; fill-rule:evenodd; clip-rule:evenodd" xmlns:xlink="http://www.w3.org/1999/xlink">
<g><path style="opacity:0.907" fill="#cd967a" d="M 601.5,147.5 C 594.012,161.694 583.346,173.694 569.5,183.5C 564.69,186.046 560.19,189.046 556,192.5C 549.266,196.548 542.099,199.714 534.5,202C 534.833,202.333 535.167,202.667 535.5,203C 524.654,206.188 513.987,209.855 503.5,214C 493.299,215.085 483.132,216.252 473,217.5C 465.795,216.309 458.462,215.309 451,214.5C 437.817,210.323 427.15,201.99 419,189.5C 417.589,184.547 415.756,179.381 413.5,174C 412.958,167.893 411.958,161.893 410.5,156C 411.982,148.581 412.982,141.081 413.5,133.5C 414.767,128.922 416.1,124.422 417.5,120C 416.978,119.439 416.645,118.772 416.5,118C 419.524,109.928 422.358,101.761 425,93.5C 425.333,93.8333 425.667,94.1667 426,94.5C 433.966,74.7002 445.132,57.0335 459.5,41.5C 464.471,38.0314 469.304,34.3647 474,30.5C 479.452,28.6603 483.952,26.327 487.5,23.5C 506.075,18.5528 524.742,18.2194 543.5,22.5C 544.884,18.2804 547.551,15.1137 551.5,13C 568.108,9.97027 575.608,16.4703 574,32.5C 574.772,31.1509 575.939,30.3176 577.5,30C 595.067,27.022 601.901,34.1886 598,51.5C 597.5,52.6667 596.667,53.5 595.5,54C 611.289,52.7863 618.122,59.953 616,75.5C 613.673,80.4232 609.84,83.5899 604.5,85C 607.3,94.4776 609.3,103.478 610.5,112C 608.942,120.457 607.109,129.624 605,139.5C 603.834,142.155 602.668,144.822 601.5,147.5 Z M 514.5,49.5 C 544.506,52.6074 564.84,67.9407 575.5,95.5C 580.065,115.163 576.398,132.33 564.5,147C 541.946,166.61 515.946,179.276 486.5,185C 478.5,185.667 470.5,185.667 462.5,185C 457.003,183.333 452.169,180.5 448,176.5C 443.638,165.678 442.305,154.012 444,141.5C 449.276,111.451 462.109,85.2843 482.5,63C 484.377,60.8942 486.71,59.5609 489.5,59C 489.167,58.6667 488.833,58.3333 488.5,58C 492.275,56.3935 495.942,54.5602 499.5,52.5C 504.137,51.7801 508.803,51.2801 513.5,51C 514.056,50.6174 514.389,50.1174 514.5,49.5 Z"/></g>
<g><path style="opacity:0.907" fill="#cd967a" d="M 80.5,633.5 C 108.806,576.837 154.806,546.67 218.5,543C 205.672,530.932 195.005,516.766 186.5,500.5C 182.088,492.068 178.088,483.402 174.5,474.5C 172.387,468.913 171.053,463.079 170.5,457C 169.473,454.462 168.139,452.129 166.5,450C 166.833,449.667 167.167,449.333 167.5,449C 164.773,441.819 162.44,434.485 160.5,427C 157.341,414.329 160.341,403.496 169.5,394.5C 173.876,391.818 178.21,389.485 182.5,387.5C 189.256,385.935 195.756,386.602 202,389.5C 222.918,401.89 243.418,414.89 263.5,428.5C 271.903,436.233 279.57,444.566 286.5,453.5C 293.453,465.733 299.12,478.567 303.5,492C 304.308,499.652 305.474,507.152 307,514.5C 338.621,465.568 380.455,432.734 432.5,416C 438.275,414.898 443.609,415.898 448.5,419C 452.349,423.152 455.849,426.986 459,430.5C 462.333,435.5 462.333,440.5 459,445.5C 451.323,454.808 442.657,455.808 433,448.5C 398.925,462.423 370.092,483.423 346.5,511.5C 338.038,523.745 330.038,536.245 322.5,549C 330.534,546.671 338.867,545.004 347.5,544C 362.511,543.27 377.511,543.436 392.5,544.5C 404.932,547.574 417.266,551.074 429.5,555C 439.232,559.767 448.732,564.934 458,570.5C 569.686,504.486 657.186,415.319 720.5,303C 722.552,302.07 724.052,300.57 725,298.5C 734.601,280.002 744.267,262.002 754,244.5C 760.158,231.656 766.492,218.989 773,206.5C 775.667,199.833 778.333,193.167 781,186.5C 788.829,171.022 796.663,155.522 804.5,140C 813.934,125.63 826.268,114.464 841.5,106.5C 842.167,104.833 842.833,103.167 843.5,101.5C 844.191,77.6542 844.857,53.8209 845.5,30C 849.661,21.8356 855.994,16.1689 864.5,13C 879.5,12.3333 894.5,12.3333 909.5,13C 912.167,13.6667 914.833,14.3333 917.5,15C 920.28,18.8139 923.78,22.6472 928,26.5C 928.833,30.5 929.667,34.5 930.5,38.5C 931.333,63.8268 931.833,89.1601 932,114.5C 939.328,121.329 946.161,128.663 952.5,136.5C 957.915,144.906 962.081,153.906 965,163.5C 965.333,163.167 965.667,162.833 966,162.5C 970.282,180.644 974.116,198.978 977.5,217.5C 983.417,263.4 982.583,309.067 975,354.5C 971.433,368.025 968.433,381.691 966,395.5C 965.667,395.167 965.333,394.833 965,394.5C 957.138,422.595 946.805,449.595 934,475.5C 924.87,486.671 915.704,486.004 906.5,473.5C 905.339,469.205 905.172,464.871 906,460.5C 912.216,448.171 918.05,435.004 923.5,421C 929.386,403.795 934.72,386.295 939.5,368.5C 941.586,356.054 944.086,343.721 947,331.5C 947.686,319.455 948.686,307.455 950,295.5C 950.667,282.833 950.667,270.167 950,257.5C 948.684,245.916 947.684,234.249 947,222.5C 943.263,207.615 939.93,192.615 937,177.5C 933.891,170.949 931.058,164.283 928.5,157.5C 922.492,149.174 915.825,142.174 908.5,136.5C 906.631,133.265 904.631,130.099 902.5,127C 901.993,124.459 901.326,121.959 900.5,119.5C 899.5,94.1754 899.167,68.8421 899.5,43.5C 891.167,43.5 882.833,43.5 874.5,43.5C 874.833,66.1765 874.5,88.8431 873.5,111.5C 870.593,121.174 864.926,128.674 856.5,134C 856.833,134.333 857.167,134.667 857.5,135C 845.637,139.681 836.471,147.514 830,158.5C 817.809,182.714 806.309,207.214 795.5,232C 783.53,254.774 771.697,277.607 760,300.5C 738.791,336.436 715.625,371.769 690.5,406.5C 635.412,477.429 570.079,536.929 494.5,585C 494.833,585.333 495.167,585.667 495.5,586C 490.95,587.959 486.617,590.292 482.5,593C 496.164,606.991 506.164,623.158 512.5,641.5C 513.354,642.948 514.354,644.281 515.5,645.5C 515.291,646.086 514.957,646.586 514.5,647C 515.808,649.355 516.808,651.855 517.5,654.5C 518.674,664.092 520.674,673.425 523.5,682.5C 524.824,697.654 524.824,712.821 523.5,728C 520.491,738.208 518.657,748.708 518,759.5C 517.196,762.196 516.029,764.696 514.5,767C 515.359,770.17 514.525,773.004 512,775.5C 510.701,783.495 507.868,790.829 503.5,797.5C 504.167,797.833 504.833,798.167 505.5,798.5C 543.582,788.861 580.248,775.361 615.5,758C 617.057,750.633 617.89,743.133 618,735.5C 629.055,669.473 664.222,619.306 723.5,585C 732.625,580.435 741.958,576.435 751.5,573C 757.033,558.345 766.199,546.845 779,538.5C 784.363,535.401 789.863,532.734 795.5,530.5C 793.117,522.579 791.117,514.579 789.5,506.5C 788.334,490.51 788.167,474.51 789,458.5C 799.882,436.624 816.715,430.124 839.5,439C 847.736,445.252 856.736,451.419 866.5,457.5C 901.381,486.254 923.214,522.921 932,567.5C 937.037,578.585 939.703,590.585 940,603.5C 957.465,616.488 972.631,632.321 985.5,651C 986.251,654.058 988.084,656.891 991,659.5C 993.175,665.199 996.008,670.532 999.5,675.5C 1001.38,682.148 1004.05,688.481 1007.5,694.5C 1009.46,702.978 1011.63,711.311 1014,719.5C 1014.33,719.167 1014.67,718.833 1015,718.5C 1018.48,748.198 1018.32,777.865 1014.5,807.5C 1011.55,816.089 1009.05,824.755 1007,833.5C 992.464,868.289 970.964,897.455 942.5,921C 938.388,924.763 933.721,927.763 928.5,930C 928.833,930.333 929.167,930.667 929.5,931C 917.782,938.501 905.449,945.001 892.5,950.5C 808.809,978.348 735.809,962.681 673.5,903.5C 657.645,885.457 644.312,865.624 633.5,844C 631.699,836.627 629.032,829.627 625.5,823C 622.988,812.576 620.988,802.076 619.5,791.5C 605.623,798.052 591.457,804.052 577,809.5C 563.963,814.401 550.796,818.901 537.5,823C 520.922,827.059 504.256,830.393 487.5,833C 483.599,837.705 480.099,843.205 477,849.5C 474.049,852.572 471.216,855.739 468.5,859C 468.833,859.333 469.167,859.667 469.5,860C 459.232,871.166 449.565,882.166 440.5,893C 422.302,909.782 401.968,923.615 379.5,934.5C 372.857,936.729 366.19,938.896 359.5,941C 359.833,941.333 360.167,941.667 360.5,942C 349.013,943.873 337.513,945.04 326,945.5C 315.505,945.539 305.171,944.873 295,943.5C 273.08,946.485 251.246,945.985 229.5,942C 229.833,941.667 230.167,941.333 230.5,941C 198.293,931.331 171.627,914.997 150.5,892C 141.66,884.16 133.493,875.66 126,866.5C 106.941,840.973 91.4412,813.473 79.5,784C 79.8333,783.667 80.1667,783.333 80.5,783C 77.3356,773.193 74.1689,763.36 71,753.5C 65.0778,722.155 65.0778,690.822 71,659.5C 74.4798,650.818 77.6465,642.151 80.5,633.5 Z M 196.5,437.5 C 194.252,431.713 192.752,425.713 192,419.5C 206.236,429.066 220.736,438.233 235.5,447C 247.945,455.778 257.945,466.778 265.5,480C 267.38,487.079 269.88,493.913 273,500.5C 276.257,515.895 277.924,531.562 278,547.5C 280.105,549.015 279.939,549.515 277.5,549C 256.357,536.618 238.357,520.784 223.5,501.5C 218.459,493.902 214.126,486.235 210.5,478.5C 205.332,464.971 200.665,451.304 196.5,437.5 Z M 887.5,533.5 C 891.523,541.885 895.023,550.551 898,559.5C 900.057,570.712 903.224,581.546 907.5,592C 907.333,592.833 907.167,593.667 907,594.5C 892.794,584.979 878.294,575.812 863.5,567C 847.05,556.262 834.884,542.429 827,525.5C 820.942,507.074 818.276,488.074 819,468.5C 820.938,466.022 823.105,465.855 825.5,468C 852.978,483.638 873.644,505.471 887.5,533.5 Z M 799.5,562.5 C 800.833,562.5 802.167,562.5 803.5,562.5C 803.333,576.837 803.5,591.171 804,605.5C 808.885,613.288 815.718,615.788 824.5,613C 827.667,610.5 830.5,607.667 833,604.5C 833.333,597.167 833.667,589.833 834,582.5C 834.5,583.667 835.333,584.5 836.5,585C 836.167,585.333 835.833,585.667 835.5,586C 843.462,590.224 850.962,595.057 858,600.5C 855.696,609.308 853.196,618.141 850.5,627C 851.115,636.45 856.115,641.95 865.5,643.5C 868.362,643.23 871.028,642.396 873.5,641C 879.693,635.12 883.693,627.953 885.5,619.5C 886.873,619.343 888.207,619.51 889.5,620C 895.18,624.549 901.68,627.049 909,627.5C 912.035,627.391 914.869,626.724 917.5,625.5C 944.659,645.836 964.492,671.836 977,703.5C 979.283,710.35 980.95,717.35 982,724.5C 984.846,729.038 986.179,734.038 986,739.5C 986.667,755.5 986.667,771.5 986,787.5C 976.342,841.999 947.175,883.832 898.5,913C 892.445,914.924 886.778,917.59 881.5,921C 826.363,940.943 774.03,935.61 724.5,905C 663.282,860.121 639.282,799.954 652.5,724.5C 666.033,670.836 697.533,632.169 747,608.5C 748.421,621.197 753.587,632.031 762.5,641C 771.173,645.131 778.34,643.298 784,635.5C 785.555,630.618 785.888,625.618 785,620.5C 783.07,617.638 781.403,614.638 780,611.5C 774.485,590.372 780.985,574.038 799.5,562.5 Z M 224.5,573.5 C 230.951,575.16 237.618,575.993 244.5,576C 251.412,578.069 259.079,580.069 267.5,582C 274.839,585.239 282.506,589.239 290.5,594C 293.833,594.667 297.167,594.667 300.5,594C 306.644,590.016 312.977,586.349 319.5,583C 366.139,567.236 408.472,573.403 446.5,601.5C 472.944,623.476 487.944,651.643 491.5,686C 493.411,707.335 492.244,728.502 488,749.5C 484.23,759.637 480.897,769.97 478,780.5C 474.435,786.074 471.769,792.074 470,798.5C 465.389,806.799 460.722,815.133 456,823.5C 437.564,852.528 413.731,877.028 384.5,897C 379.596,899.856 374.596,902.523 369.5,905C 361.038,907.265 352.705,909.932 344.5,913C 337,913.167 329.5,913.333 322,913.5C 296.854,913.214 271.687,913.047 246.5,913C 239.053,909.824 230.72,907.157 221.5,905C 213.083,900.5 204.749,895.834 196.5,891C 162.116,864.565 135.616,831.398 117,791.5C 113.402,783.047 109.902,773.88 106.5,764C 105.05,757.191 103.55,750.357 102,743.5C 101.667,743.833 101.333,744.167 101,744.5C 97.2215,722.367 96.5549,700.034 99,677.5C 108.355,633.252 133.522,601.752 174.5,583C 183.427,580.564 192.427,578.23 201.5,576C 209.4,575.925 217.066,575.092 224.5,573.5 Z"/></g>
<g><path style="opacity:0.822" fill="#cd967a" d="M 505.5,62.5 C 510.248,62.2748 514.915,62.7748 519.5,64C 519.167,64.3333 518.833,64.6667 518.5,65C 525.885,69.5059 528.219,76.0059 525.5,84.5C 520.2,92.6491 512.867,95.1491 503.5,92C 501.391,90.8589 499.558,89.3589 498,87.5C 496.483,81.9198 496.149,76.2531 497,70.5C 500.215,67.3398 503.048,64.6731 505.5,62.5 Z"/></g>
<g><path style="opacity:0.822" fill="#cd967a" d="M 465.5,101.5 C 481.723,100.886 488.556,108.553 486,124.5C 480.461,131.681 473.295,133.847 464.5,131C 461.707,129.375 459.373,127.208 457.5,124.5C 456.339,120.205 456.172,115.871 457,111.5C 459.559,107.836 462.392,104.503 465.5,101.5 Z"/></g>
<g><path style="opacity:0.819" fill="#cd967a" d="M 504.5,102.5 C 508.646,101.353 512.98,101.186 517.5,102C 517.167,102.333 516.833,102.667 516.5,103C 525.121,107.201 528.287,114.034 526,123.5C 519.774,132.345 511.607,134.512 501.5,130C 500.132,128.66 498.799,127.326 497.5,126C 496.403,120.54 496.236,115.04 497,109.5C 499.238,106.601 502.071,104.434 505.5,103C 505.272,102.601 504.938,102.435 504.5,102.5 Z"/></g>
<g><path style="opacity:0.813" fill="#cd967a" d="M 544.5,101.5 C 548.555,101.176 552.555,101.509 556.5,102.5C 565.252,107.678 567.919,115.178 564.5,125C 558.456,132.219 550.956,134.052 542,130.5C 537.012,127.665 534.512,123.332 534.5,117.5C 535.074,114.823 535.741,112.157 536.5,109.5C 539.199,106.67 541.866,104.004 544.5,101.5 Z"/></g>
<g><path style="opacity:0.832" fill="#cd967a" d="M 465.5,141.5 C 469.514,141.334 473.514,141.501 477.5,142C 485.678,146.236 488.512,153.403 486,163.5C 482.919,168.765 478.252,171.432 472,171.5C 459.153,170.458 454.153,163.458 457,150.5C 459.672,147.329 462.505,144.329 465.5,141.5 Z"/></g>
<g><path style="opacity:0.828" fill="#cd967a" d="M 504.5,141.5 C 508.846,141.334 513.179,141.501 517.5,142C 520.51,144.531 523.177,147.364 525.5,150.5C 527.965,166.868 520.965,173.701 504.5,171C 500.993,169.493 498.493,166.993 497,163.5C 496.313,157.796 496.479,152.13 497.5,146.5C 499.698,145.986 501.698,144.986 503.5,143.5C 504.298,143.043 504.631,142.376 504.5,141.5 Z"/></g>
<g><path style="opacity:0.004" fill="#cd967a" d="M 601.5,147.5 C 602.833,148.167 602.833,148.167 601.5,147.5 Z"/></g>
<g><path style="opacity:0.9" fill="#cd967a" d="M 324.5,189.5 C 372.582,189.338 407.915,211.338 430.5,255.5C 446.607,300.269 439.107,339.935 408,374.5C 370.518,408.038 329.185,415.371 284,396.5C 259.247,383.725 240.913,364.058 229,337.5C 215.049,295.283 222.715,257.283 252,223.5C 268.973,206.917 289.14,196.084 312.5,191C 317.916,190.916 321.916,190.416 324.5,189.5 Z M 315.5,222.5 C 326.689,222.245 337.856,222.579 349,223.5C 374.023,230.398 391.523,245.398 401.5,268.5C 413.162,304.179 405.495,334.346 378.5,359C 347.285,380.938 315.285,380.938 282.5,359C 276.197,353.326 270.197,346.659 264.5,339C 265.833,337.16 265.666,336.66 264,337.5C 263.212,334.037 261.546,331.037 259,328.5C 257.556,321.18 255.723,314.013 253.5,307C 253.579,301.651 253.579,296.318 253.5,291C 254.885,287.321 255.718,283.488 256,279.5C 257.314,275.988 258.314,272.321 259,268.5C 262.469,263.872 265.135,259.206 267,254.5C 279.127,237.537 295.294,226.871 315.5,222.5 Z"/></g>
<g><path style="opacity:0.924" fill="#cd967a" d="M 628.5,195.5 C 634.004,195.068 639.337,195.735 644.5,197.5C 645.593,199.349 646.926,201.016 648.5,202.5C 649.039,205.181 650.039,207.681 651.5,210C 649.971,211.582 649.471,213.415 650,215.5C 659.794,209.734 667.794,211.068 674,219.5C 677.208,225.584 676.708,231.417 672.5,237C 675.5,237.333 678.5,237.667 681.5,238C 684.193,240.212 687.193,241.712 690.5,242.5C 692.445,247.94 692.945,253.607 692,259.5C 689.834,262.657 687.334,265.491 684.5,268C 690.501,289.348 685.167,306.348 668.5,319C 670.123,322.049 671.623,325.216 673,328.5C 673.667,334.167 673.667,339.833 673,345.5C 670.793,350.929 668.293,356.262 665.5,361.5C 661.586,365.483 657.586,369.483 653.5,373.5C 648.239,375.838 642.906,378.004 637.5,380C 628.437,381.761 620.104,380.261 612.5,375.5C 602.731,387.645 590.731,393.978 576.5,394.5C 571.829,394.037 567.163,393.537 562.5,393C 562.833,392.667 563.167,392.333 563.5,392C 561.567,391.749 559.734,391.249 558,390.5C 543.035,409.014 523.869,413.348 500.5,403.5C 491.866,398.025 485.532,390.525 481.5,381C 480.649,375.711 479.649,370.544 478.5,365.5C 479.826,359.196 480.993,352.863 482,346.5C 482.333,346.833 482.667,347.167 483,347.5C 484.782,343.487 487.282,339.987 490.5,337C 490.167,336.667 489.833,336.333 489.5,336C 492.167,333.667 494.833,331.333 497.5,329C 489.315,307.456 494.315,289.456 512.5,275C 507.389,266.172 506.222,256.672 509,246.5C 514.148,230.595 524.814,220.261 541,215.5C 550.725,213.48 560.058,214.48 569,218.5C 574.073,212.708 579.406,208.041 585,204.5C 591.28,202.239 597.78,200.572 604.5,199.5C 609.796,200.47 614.962,201.803 620,203.5C 621.502,201.325 623.335,199.492 625.5,198C 625.167,197.667 624.833,197.333 624.5,197C 626.058,196.79 627.391,196.29 628.5,195.5 Z M 599.5,231.5 C 612.98,230.109 618.48,236.109 616,249.5C 608.258,254.545 605.258,261.545 607,270.5C 608.188,271.563 608.688,272.897 608.5,274.5C 611.061,275.71 613.395,277.376 615.5,279.5C 620.007,280.801 624.507,280.801 629,279.5C 632.171,276.994 635.338,274.494 638.5,272C 653.545,269.62 658.712,275.787 654,290.5C 648.79,293.19 643.623,296.023 638.5,299C 635.865,300.961 634.031,303.461 633,306.5C 630.586,315.676 632.753,323.343 639.5,329.5C 644.13,342.703 639.464,348.87 625.5,348C 622.338,346.252 619.338,344.252 616.5,342C 616.833,341.667 617.167,341.333 617.5,341C 612.563,339.915 607.563,339.248 602.5,339C 611.895,336.941 619.061,331.774 624,323.5C 626.79,316.529 625.624,310.363 620.5,305C 615.418,301.546 609.918,300.712 604,302.5C 599.241,306.858 593.741,309.025 587.5,309C 586.051,307.883 584.384,307.216 582.5,307C 581.506,305.671 580.506,304.338 579.5,303C 579.57,294.473 576.237,287.806 569.5,283C 563.763,282.211 558.097,282.544 552.5,284C 551.447,286.844 549.614,289.677 547,292.5C 546.667,300.833 546.333,309.167 546,317.5C 545.751,318.624 545.251,319.624 544.5,320.5C 534.448,325.981 527.781,323.314 524.5,312.5C 525.644,309.606 526.644,306.606 527.5,303.5C 531.258,301.09 535.258,299.09 539.5,297.5C 548.364,291.39 551.03,283.057 547.5,272.5C 545.528,270.171 543.528,267.838 541.5,265.5C 540.877,262.833 539.877,260.333 538.5,258C 539.956,255.734 540.79,253.234 541,250.5C 545.056,247.368 549.556,245.868 554.5,246C 558.998,248.75 563.331,251.75 567.5,255C 571.833,255.667 576.167,255.667 580.5,255C 583.64,253.027 586.64,250.86 589.5,248.5C 591.241,243.995 593.408,239.329 596,234.5C 597.729,234.026 598.895,233.026 599.5,231.5 Z"/></g>
<g><path style="opacity:0.894" fill="#cd967a" d="M 306.5,236.5 C 310.514,236.334 314.514,236.501 318.5,237C 320.779,239.454 323.446,241.287 326.5,242.5C 329.451,241.126 332.118,239.293 334.5,237C 341.88,234.917 347.88,236.751 352.5,242.5C 357.49,251.293 356.157,258.96 348.5,265.5C 357.395,274.857 357.729,283.857 349.5,292.5C 348.624,293.251 347.624,293.751 346.5,294C 342.167,294.667 337.833,294.667 333.5,294C 331.334,292.007 329.001,290.173 326.5,288.5C 323.764,289.862 321.431,291.696 319.5,294C 306.489,297.471 298.823,292.638 296.5,279.5C 297.126,273.613 299.793,268.946 304.5,265.5C 296.425,259.33 294.759,251.663 299.5,242.5C 302.091,240.719 304.425,238.719 306.5,236.5 Z"/></g>
<g><path style="opacity:0.004" fill="#cd967a" d="M 186.5,500.5 C 185.833,501.167 185.833,501.167 186.5,500.5 Z"/></g>
<g><path style="opacity:0.004" fill="#cd967a" d="M 80.5,633.5 C 79.8333,632.167 79.8333,632.167 80.5,633.5 Z"/></g>
<g><path style="opacity:0.816" fill="#cd967a" d="M 728.5,654.5 C 739.597,654.026 745.93,659.193 747.5,670C 745.732,682.899 738.398,687.732 725.5,684.5C 717.289,680.227 714.623,673.56 717.5,664.5C 719.796,659.54 723.463,656.207 728.5,654.5 Z"/></g>
<g><path style="opacity:0.807" fill="#cd967a" d="M 766.5,706.5 C 780.384,707.634 786.051,714.967 783.5,728.5C 774.692,741.169 765.359,741.669 755.5,730C 754.214,727.57 753.214,725.07 752.5,722.5C 753.928,714.164 758.594,708.831 766.5,706.5 Z"/></g>
<g><path style="opacity:0.819" fill="#cd967a" d="M 690.5,747.5 C 706.66,747.437 712.66,755.27 708.5,771C 701.878,779.334 694.545,781.168 686.5,776.5C 684.51,774.344 682.343,772.344 680,770.5C 679.171,765.467 679.338,760.467 680.5,755.5C 683.298,752.022 686.631,749.355 690.5,747.5 Z"/></g>
</svg>
